<svg xmlns="http://www.w3.org/2000/svg" xmlns:xlink="http://www.w3.org/1999/xlink" width="47" height="47" viewBox="0 0 47 47">
  <defs>
    <clipPath id="clip-path">
      <path id="Path_2061" data-name="Path 2061" d="M648.019,59.929a23.5,23.5,0,1,1-23.5-23.5A23.5,23.5,0,0,1,648.019,59.929Z" transform="translate(-601.019 -36.429)" fill="#f1eed8"/>
    </clipPath>
  </defs>
  <g id="Group_2647" data-name="Group 2647" transform="translate(-601.019 -36.429)">
    <g id="Group_2646" data-name="Group 2646" transform="translate(601.019 36.429)">
      <path id="Path_2038" data-name="Path 2038" d="M648.019,59.929a23.5,23.5,0,1,1-23.5-23.5A23.5,23.5,0,0,1,648.019,59.929Z" transform="translate(-601.019 -36.429)" fill="#725374"/>
      <g id="Group_2645" data-name="Group 2645" clip-path="url(#clip-path)">
        <g id="Group_2644" data-name="Group 2644" transform="translate(7.233 3.603)">
          <path id="Path_2039" data-name="Path 2039" d="M632.481,103.763h-5.064s-13.06,1.779-13.735,7.4V112.3h32.533v-1.141C645.542,105.542,632.481,103.763,632.481,103.763Z" transform="translate(-613.683 -68.906)" fill="#fabc99"/>
          <g id="Group_2634" data-name="Group 2634" transform="translate(25.803 19.586)">
            <path id="Path_2040" data-name="Path 2040" d="M658.916,78.894c-.219,1.161.2,2.214.926,2.35s1.5-.692,1.717-1.853-.2-2.212-.927-2.35S659.133,77.734,658.916,78.894Z" transform="translate(-658.857 -77.026)" fill="#fabc99"/>
            <path id="Path_2041" data-name="Path 2041" d="M661.02,79a1.25,1.25,0,0,0,.134.055.3.3,0,0,1,.14.069c.039.041.086.057.118.117a.428.428,0,0,1,.086.166c.032.054.021.142.042.211a1.939,1.939,0,0,1-.049.508,2.334,2.334,0,0,1-.157.5A1.36,1.36,0,0,1,661.1,81a.745.745,0,0,1-.134.1c-.044.007-.095.041-.132.027-.079-.011-.139-.015-.139-.015a.759.759,0,0,0,.115.1c.038.038.1.035.179.055a.543.543,0,0,0,.249-.045,1.083,1.083,0,0,0,.437-.4,1.737,1.737,0,0,0,.251-.6,1.7,1.7,0,0,0,.035-.336,1.467,1.467,0,0,0-.036-.332.919.919,0,0,0-.136-.3c-.033-.043-.063-.087-.1-.123l-.123-.084a.5.5,0,0,0-.241-.079.4.4,0,0,0-.17.007A1.337,1.337,0,0,0,661.02,79Z" transform="translate(-659.646 -77.852)" fill="#d2d1d1" style="mix-blend-mode: multiply;isolation: isolate"/>
          </g>
          <g id="Group_2635" data-name="Group 2635" transform="translate(4.325 19.586)">
            <path id="Path_2042" data-name="Path 2042" d="M623.957,78.894c.219,1.161-.2,2.214-.926,2.35s-1.5-.692-1.717-1.853.2-2.212.927-2.35S623.739,77.734,623.957,78.894Z" transform="translate(-621.255 -77.026)" fill="#fabc99"/>
            <path id="Path_2043" data-name="Path 2043" d="M622.972,79a1.308,1.308,0,0,1-.134.055.306.306,0,0,0-.14.069c-.039.041-.086.057-.118.117a.434.434,0,0,0-.086.166c-.033.054-.021.142-.042.211a1.943,1.943,0,0,0,.05.508,2.261,2.261,0,0,0,.157.5,1.355,1.355,0,0,0,.231.375.737.737,0,0,0,.133.1c.045.007.1.041.134.027.079-.011.139-.015.139-.015a.748.748,0,0,1-.114.1c-.039.038-.1.035-.179.055a.54.54,0,0,1-.249-.045,1.084,1.084,0,0,1-.438-.4,1.76,1.76,0,0,1-.251-.6,1.707,1.707,0,0,1-.034-.336,1.505,1.505,0,0,1,.035-.332.9.9,0,0,1,.137-.3c.033-.043.062-.087.095-.123l.124-.084a.5.5,0,0,1,.24-.079.4.4,0,0,1,.17.007A1.326,1.326,0,0,1,622.972,79Z" transform="translate(-621.586 -77.852)" fill="#d2d1d1" style="mix-blend-mode: multiply;isolation: isolate"/>
          </g>
          <rect id="Rectangle_14" data-name="Rectangle 14" width="5.064" height="4.284" transform="translate(13.735 31.518)" fill="#fabc99"/>
          <path id="Path_2044" data-name="Path 2044" d="M642.792,98.358v-.442h-5.064v3.292C638.57,99.4,640.751,98.429,642.792,98.358Z" transform="translate(-623.994 -66.398)" fill="#d2d1d1" style="mix-blend-mode: multiply;isolation: isolate"/>
          <path id="Path_2045" data-name="Path 2045" d="M644.968,64.311c0,7.581-4.6,13.726-10.872,13.726s-10.751-6.369-10.751-13.948c-.114-10.071,4.475-13.5,10.751-13.5S645.52,53.672,644.968,64.311Z" transform="translate(-617.825 -46.103)" fill="#fabc99"/>
          <path id="Path_2046" data-name="Path 2046" d="M633.187,103.957a3.54,3.54,0,0,1-6.471,0c-2.71.463-12.453,2.452-13.033,7.289v1.141h32.533v-1.141C645.636,106.412,635.9,104.42,633.187,103.957Z" transform="translate(-613.683 -68.988)" fill="#44d3c5"/>
          <g id="Group_2636" data-name="Group 2636" transform="translate(11.971 34.968)">
            <path id="Path_2047" data-name="Path 2047" d="M642.174,103.957a3.54,3.54,0,0,1-6.471,0c-.282.049-.645.115-1.062.2a4.478,4.478,0,0,0,4.25,3.211h.049a4.477,4.477,0,0,0,4.252-3.22C642.793,104.066,642.447,104,642.174,103.957Z" transform="translate(-634.641 -103.956)" fill="#6f171c"/>
          </g>
          <path id="Path_2048" data-name="Path 2048" d="M628.907,69.764a2.561,2.561,0,0,1,3.992-.681" transform="translate(-620.211 -53.744)" fill="none" stroke="#341e13" stroke-linecap="round" stroke-miterlimit="10" stroke-width="0.908"/>
          <path id="Path_2049" data-name="Path 2049" d="M652.418,69.764a2.56,2.56,0,0,0-3.991-.681" transform="translate(-628.582 -53.744)" fill="none" stroke="#341e13" stroke-linecap="round" stroke-miterlimit="10" stroke-width="0.908"/>
          <g id="Group_2637" data-name="Group 2637" transform="translate(14.833 22.923)">
            <path id="Path_2050" data-name="Path 2050" d="M642.4,82.868a1.036,1.036,0,0,1,.142.142,1.435,1.435,0,0,1,.275.467,1.021,1.021,0,0,1,.071.388.888.888,0,0,1-.133.473,2.035,2.035,0,0,1-.174.208c-.068.05-.142.1-.218.146a2.077,2.077,0,0,1-.466.155,3.807,3.807,0,0,1-.455.034c-.146,0-.288-.022-.425-.031a4.978,4.978,0,0,1-.716-.175,4.34,4.34,0,0,1-.653-.3,4.689,4.689,0,0,1,.707-.035c.207-.006.445-.013.7-.007.123-.006.248-.021.376-.019a3.458,3.458,0,0,0,.367-.044,1.6,1.6,0,0,0,.322-.086.749.749,0,0,1,.129-.064l.1-.081a.6.6,0,0,0,.119-.222,1.062,1.062,0,0,0,.033-.278,2.575,2.575,0,0,0-.051-.48C642.422,82.94,642.4,82.868,642.4,82.868Z" transform="translate(-639.652 -82.868)" fill="#ca9a7e"/>
          </g>
          <g id="Group_2639" data-name="Group 2639" transform="translate(13.29 26.755)">
            <path id="Path_2051" data-name="Path 2051" d="M636.95,89.995a3.381,3.381,0,0,0,6.12,0Z" transform="translate(-636.95 -89.756)" fill="#fff"/>
            <g id="Group_2638" data-name="Group 2638">
              <path id="Path_2052" data-name="Path 2052" d="M636.95,89.816l.286.383.315.346.352.3.383.256.408.205.428.146.442.085.446.018.459-.046.414-.106.409-.17.384-.221.351-.271.316-.315.278-.349.239-.378.21.352C641.031,90.04,638.991,89.987,636.95,89.816Zm0,0c2.041-.171,4.081-.224,6.12-.239h.011a.232.232,0,0,1,.233.23.228.228,0,0,1-.034.123l-.263.429c-.1.135-.209.264-.315.395s-.241.235-.363.352-.27.2-.4.3-.3.166-.444.246l-.477.176-.513.105-.49.025-.5-.053-.485-.126-.457-.2c-.141-.087-.284-.171-.42-.262s-.254-.208-.374-.318-.222-.239-.326-.362l-.278-.4Z" transform="translate(-636.95 -89.577)" fill="#dca788"/>
            </g>
          </g>
          <g id="Group_2641" data-name="Group 2641" transform="translate(9.678 17.285)">
            <path id="Path_2053" data-name="Path 2053" d="M633.213,74.241A1.083,1.083,0,1,1,632.142,73,1.166,1.166,0,0,1,633.213,74.241Z" transform="translate(-630.817 -72.999)" fill="#341e13"/>
            <g id="Group_2640" data-name="Group 2640" transform="translate(0 0.244)">
              <path id="Path_2054" data-name="Path 2054" d="M631.625,73.926a.5.5,0,1,1-.5-.5A.5.5,0,0,1,631.625,73.926Z" transform="translate(-630.627 -73.427)" fill="#fff"/>
              <path id="Path_2055" data-name="Path 2055" d="M631.974,75.391a.237.237,0,1,1-.236-.237A.236.236,0,0,1,631.974,75.391Z" transform="translate(-631.002 -74.168)" fill="#fff"/>
            </g>
          </g>
          <g id="Group_2643" data-name="Group 2643" transform="translate(20.503 17.285)">
            <path id="Path_2056" data-name="Path 2056" d="M649.578,74.241A1.083,1.083,0,1,0,650.649,73,1.167,1.167,0,0,0,649.578,74.241Z" transform="translate(-649.578 -72.999)" fill="#341e13"/>
            <g id="Group_2642" data-name="Group 2642" transform="translate(1.398 0.244)">
              <path id="Path_2057" data-name="Path 2057" d="M652.025,73.926a.5.5,0,1,0,.5-.5A.5.5,0,0,0,652.025,73.926Z" transform="translate(-652.025 -73.427)" fill="#fff"/>
              <path id="Path_2058" data-name="Path 2058" d="M652.07,75.391a.237.237,0,1,0,.237-.237A.236.236,0,0,0,652.07,75.391Z" transform="translate(-652.044 -74.168)" fill="#fff"/>
            </g>
          </g>
          <path id="Path_2059" data-name="Path 2059" d="M647.923,46.038s1.94,1.713,3.959-.848c0,0-.231,2.462-1.668,3.365a2.158,2.158,0,0,0,2.986-.043,3.484,3.484,0,0,1-1.4,3.352,32.312,32.312,0,0,1-.955,9.387l-.545,1.393-.5.17-.271,1.932h-.521l.57-6.361s.52-7.531-6.351-7.764c0,0-3.071-.549-3.612,1.7,0,0-.1-2.325-4.2-1.7a4.5,4.5,0,0,1,1.047-5.822S641.326,41.066,647.923,46.038Z" transform="translate(-622.726 -43.044)" fill="#fc6644"/>
          <path id="Path_2060" data-name="Path 2060" d="M624.5,45.73a13.981,13.981,0,0,1,13.151-2.25c3.044,2.726-.643,6.834-.643,6.834-2.89-.31-3.241,1.7-3.241,1.7-.037-2.441-4.574-1.7-4.574-1.7-5.708.271-5.9,7.764-5.9,7.764l.121,6.361h-.52l-.271-1.932-.5-.17S618.719,50.149,624.5,45.73Z" transform="translate(-616.874 -42.737)" fill="#fc6644"/>
        </g>
      </g>
    </g>
  </g>
</svg>
