<svg xmlns="http://www.w3.org/2000/svg" width="19.13" height="20" viewBox="0 0 19.13 20">
  <g id="outline" transform="translate(-34.801 -39.997)">
    <path id="Path_2906" data-name="Path 2906" d="M36.929,58.7a3.126,3.126,0,0,0,2.187.921h0a.37.37,0,0,0,.37.37h6.667a.37.37,0,0,0,.37-.37v-6.15a1.26,1.26,0,0,0,1.589-.9,5.64,5.64,0,0,0,.112-2.175l-.119-.836.786-.337a.37.37,0,0,0,.193-.491l-.543-1.222,1.844-1.827,1.037-.389a.37.37,0,0,0,.137-.09l2.268-2.361a.37.37,0,0,0-.016-.529l-1.806-1.667a.37.37,0,0,0-.521.018l-2.269,2.407a.37.37,0,0,0-.082.137l-.342,1.025L47.6,45.394a.37.37,0,0,0-.218-.193s-2.3-.76-2.34-.76v-1l.792-1.188a1.449,1.449,0,1,0-2.411-1.608l-.06.091H42.5a1.95,1.95,0,0,0-1.672,2.953l.456.76a.369.369,0,0,0-.061.014L39,45.2a.37.37,0,0,0-.184.136L36.962,47.93l-1.485,2.079a1.735,1.735,0,0,0,.485,2.476,3.128,3.128,0,0,0-1.1,2.061l-.042.379a3.133,3.133,0,0,0,.9,2.574ZM48,48.8v-.669l.25.562Zm1.369-4.093a.37.37,0,0,0,.094-.149l.345-1.034,1.961-2.081,1.259,1.162-1.948,2.028-1.032.387a.371.371,0,0,0-.131.084l-1.7,1.685-.3-.674ZM45.782,59.256H40.97a3.142,3.142,0,0,0,1.422-1.567l.427-1.026h2.963Zm0-3.333H43.128l.032-.078a1.366,1.366,0,0,1,1.042-.827,2.121,2.121,0,0,0,1.58-1.2Zm-.33-7.42.294.736-2.921,2.893-.633-.475Zm-3.859,2.7a.929.929,0,0,0-.175-.09l-1.136-.253a2.108,2.108,0,0,0,.177-.392l.089-.266a1.387,1.387,0,0,1,1.318-.95h.226a1.38,1.38,0,0,1,.982.407l.057.057Zm4.045-.818-.089.716c-.04-.048-.082-.095-.126-.139l-.182-.182Zm1.626-2.554s0,1.086,0,1.1l.224,1.566a4.9,4.9,0,0,1-.1,1.891.522.522,0,0,1-.909.2.372.372,0,0,0-.066-.094l-.144-.216a.522.522,0,0,1-.084-.354L46.52,49.3a.37.37,0,0,0-.024-.183l-.56-1.4v0l-.043-.106.746-.3h0l.395-.158Zm-5.733-5.878a1.215,1.215,0,0,1,.967-.484H43.56a.37.37,0,0,0,.308-.165l.17-.255a.708.708,0,1,1,1.179.786l-.744,1.116H42.819a.37.37,0,0,0-.262.108l-.776.776-.321-.534A1.2,1.2,0,0,1,41.531,41.957ZM44.3,43.7v1.116a1.111,1.111,0,1,1-2.222,0V44.59l.894-.894Zm-4.954,2.17,2.03-.677a1.852,1.852,0,0,0,3.626,0l1.989.663.04.09-.731.707-1.027.411a.37.37,0,0,0-.206.481l.087.217L43.662,49.2l-.065-.065a2.116,2.116,0,0,0-1.506-.624h-.226a2.127,2.127,0,0,0-2.009,1.424V48.515a.37.37,0,0,0-.679-.205l-.49.735-.94-.94Zm-.231,3.873V50.6l-.5-.112ZM35.924,51.26a1,1,0,0,1,.156-.821l1.231-1.723.958.958-.572.858a.37.37,0,0,0,.228.567l3.255.723,1.137.853-.476.714-.722.241-.584-.876a.37.37,0,0,0-.247-.16L36.727,52A1,1,0,0,1,35.924,51.26Zm4.147,3.6-.585-.583.714-.691.46.69h0Zm.159,1.2-.38.394-2.07-2.064L38.152,54Zm-4.674-1.054.042-.379a2.391,2.391,0,0,1,1.255-1.855l2.661.444-.558.54-.554-.55a.37.37,0,0,0-.53.008l-.88.928A.37.37,0,0,0,37,54.66l2.592,2.585a.37.37,0,0,0,.262.108h0a.37.37,0,0,0,.263-.113l.895-.928a.37.37,0,0,0-.006-.52l-.414-.411,1.212-1.2.386-.129a.37.37,0,0,0,.191-.146l.583-.875L44.714,51.3l.185.185a1.4,1.4,0,0,1,.393,1.179l-.064.447a1.384,1.384,0,0,1-1.147,1.174,2.1,2.1,0,0,0-1.6,1.272L41.708,57.4a2.4,2.4,0,0,1-2.222,1.481h-.331a2.392,2.392,0,0,1-1.7-.705l-1.205-1.205A2.4,2.4,0,0,1,35.557,55.007Z" transform="translate(0)" fill="#fff"/>
  </g>
</svg>
