<svg xmlns="http://www.w3.org/2000/svg" width="12.634" height="20" viewBox="0 0 12.634 20">
  <g id="flag" transform="translate(-88.516)">
    <g id="Group_3288" data-name="Group 3288" transform="translate(88.516 0)">
      <path id="Path_2905" data-name="Path 2905" d="M101.038,10.5,97.8,6.978l3.239-3.5a.389.389,0,0,0-.326-.652H90.255v-.3A1.37,1.37,0,0,0,91.1,1.3,1.3,1.3,0,0,0,89.8,0a1.283,1.283,0,0,0-1.283,1.282c0,.007,0,.015,0,.022a1.391,1.391,0,0,0,.87,1.217V19.565a.435.435,0,0,0,.87,0V11.3h10.457a.478.478,0,0,0,.391-.3A.456.456,0,0,0,101.038,10.5ZM89.8,1.739a.435.435,0,1,1,.435-.435A.435.435,0,0,1,89.8,1.739Zm.457,8.7V3.7h9.478L96.908,6.717a.457.457,0,0,0,0,.609l2.826,3.109H90.255Z" transform="translate(-88.516 0)" fill="#fff"/>
    </g>
  </g>
</svg>
