<svg xmlns="http://www.w3.org/2000/svg" width="20.915" height="19" viewBox="0 0 20.915 19">
  <path id="Path_2466" data-name="Path 2466" d="M37.628,29.335a.958.958,0,0,1-.483-.161l-9.174-6.889L18.8,29.174a.8.8,0,1,1-.966-1.288l9.657-7.243a.774.774,0,0,1,.966,0l9.657,7.243a.813.813,0,0,1,.161,1.127A.894.894,0,0,1,37.628,29.335Zm-1.835,7.693V30.623a.8.8,0,0,0-1.609,0v6.406a.852.852,0,0,1-.837.837H22.6a.852.852,0,0,1-.837-.837V30.623a.8.8,0,0,0-1.609,0v6.406A2.445,2.445,0,0,0,22.6,39.475H33.314A2.452,2.452,0,0,0,35.793,37.029Z" transform="translate(-17.513 -20.475)" fill="#fff"/>
</svg>
