<svg xmlns="http://www.w3.org/2000/svg" width="20.83" height="18.682" viewBox="0 0 20.83 18.682">
  <path id="Icon_awesome-trophy" data-name="Icon awesome-trophy" d="M18.524,2.148h-3.49V.805A.8.8,0,0,0,14.229,0H5.1A.8.8,0,0,0,4.3.805V2.148H.805A.8.8,0,0,0,0,2.953V4.832A4.379,4.379,0,0,0,2.077,8.212a7.862,7.862,0,0,0,3.691,1.4,7.423,7.423,0,0,0,2.285,2.47V14.5H6.443A1.937,1.937,0,0,0,4.3,16.376v.4a.4.4,0,0,0,.4.4h9.933a.4.4,0,0,0,.4-.4v-.4A1.937,1.937,0,0,0,12.886,14.5H11.276V12.081a7.423,7.423,0,0,0,2.285-2.47,7.835,7.835,0,0,0,3.691-1.4A4.388,4.388,0,0,0,19.33,4.832V2.953A.8.8,0,0,0,18.524,2.148ZM3.332,6.47A2.469,2.469,0,0,1,2.148,4.832V4.3H4.3a12.053,12.053,0,0,0,.43,2.893,5.408,5.408,0,0,1-1.4-.718ZM17.182,4.832A2.579,2.579,0,0,1,16,6.47a5.429,5.429,0,0,1-1.4.718,12.053,12.053,0,0,0,.43-2.893h2.158Z" transform="translate(0.75 0.75)" fill="none" stroke="#fff" stroke-width="1.5"/>
</svg>
