<svg xmlns="http://www.w3.org/2000/svg" width="28.482" height="19.053" viewBox="0 0 28.482 19.053">
  <g id="Icon_feather-users" data-name="Icon feather-users" transform="translate(5.082 -3.529)">
    <path id="Path_2130" data-name="Path 2130" d="M16.773,28.227V26.318A3.818,3.818,0,0,0,12.955,22.5H5.318A3.818,3.818,0,0,0,1.5,26.318v1.909" transform="translate(0 -6.545)" fill="none" stroke="#fff" stroke-linecap="round" stroke-linejoin="round" stroke-width="1.8"/>
    <path id="Path_2131" data-name="Path 2131" d="M15.136,8.318A3.818,3.818,0,1,1,11.318,4.5,3.818,3.818,0,0,1,15.136,8.318Z" transform="translate(-2.182)" fill="none" stroke="#fff" stroke-linecap="round" stroke-linejoin="round" stroke-width="1.8"/>
    <g id="Group_3250" data-name="Group 3250">
      <path id="Path_2132" data-name="Path 2132" d="M32.864,28.3V26.389A3.818,3.818,0,0,0,30,22.7" transform="translate(-10.364 -6.616)" fill="none" stroke="#fff" stroke-linecap="round" stroke-linejoin="round" stroke-width="1.8"/>
      <path id="Path_2133" data-name="Path 2133" d="M24,4.7a3.818,3.818,0,0,1,0,7.4" transform="translate(-8.182 -0.071)" fill="none" stroke="#fff" stroke-linecap="round" stroke-linejoin="round" stroke-width="1.8"/>
    </g>
    <g id="Group_3251" data-name="Group 3251" transform="translate(-4.182 4.624)">
      <path id="Path_2132-2" data-name="Path 2132" d="M30,28.3V26.389A3.818,3.818,0,0,1,32.864,22.7" transform="translate(-30 -11.24)" fill="none" stroke="#fff" stroke-linecap="round" stroke-linejoin="round" stroke-width="1.8"/>
      <path id="Path_2133-2" data-name="Path 2133" d="M26.871,4.7a3.818,3.818,0,0,0,0,7.4" transform="translate(-20.19 -4.695)" fill="none" stroke="#fff" stroke-linecap="round" stroke-linejoin="round" stroke-width="1.8"/>
    </g>
  </g>
</svg>
