<svg xmlns="http://www.w3.org/2000/svg" xmlns:xlink="http://www.w3.org/1999/xlink" width="38.471" height="38.414" viewBox="0 0 38.471 38.414">
  <defs>
    <linearGradient id="linear-gradient" x1="0.878" y1="0.784" x2="0.165" y2="0.248" gradientUnits="objectBoundingBox">
      <stop offset="0" stop-color="#184471"/>
      <stop offset="1" stop-color="#112d4f"/>
    </linearGradient>
    <clipPath id="clip-path">
      <path id="Path_2061" data-name="Path 2061" d="M639.378,55.609a19.179,19.179,0,1,1-19.18-19.18A19.179,19.179,0,0,1,639.378,55.609Z" transform="translate(-601.019 -36.429)" fill="#f1eed8"/>
    </clipPath>
  </defs>
  <g id="Group_3266" data-name="Group 3266" transform="translate(-21.529 -77.176)">
    <circle id="Ellipse_1" data-name="Ellipse 1" cx="19.177" cy="19.177" r="19.177" transform="translate(21.529 77.176)" fill="url(#linear-gradient)"/>
    <g id="Group_2645" data-name="Group 2645" transform="translate(21.641 77.232)" clip-path="url(#clip-path)">
      <g id="Group_2644" data-name="Group 2644" transform="translate(5.904 2.94)">
        <path id="Path_2039" data-name="Path 2039" d="M629.025,103.763h-4.133s-10.659,1.452-11.21,6.039v.931h26.551V109.8C639.685,105.215,629.025,103.763,629.025,103.763Z" transform="translate(-613.683 -75.314)" fill="#fabc99"/>
        <g id="Group_2634" data-name="Group 2634" transform="translate(21.059 15.985)">
          <path id="Path_2040" data-name="Path 2040" d="M658.905,78.55c-.179.947.159,1.807.756,1.918s1.224-.565,1.4-1.513-.16-1.805-.757-1.918S659.083,77.6,658.905,78.55Z" transform="translate(-658.857 -77.026)" fill="#fabc99"/>
          <path id="Path_2041" data-name="Path 2041" d="M660.961,78.988a1.017,1.017,0,0,0,.109.045.247.247,0,0,1,.114.056c.032.034.07.047.1.1a.347.347,0,0,1,.07.136c.027.044.017.116.034.172a1.582,1.582,0,0,1-.04.415,1.921,1.921,0,0,1-.128.41,1.11,1.11,0,0,1-.189.306.6.6,0,0,1-.109.08c-.036.006-.077.034-.108.022-.065-.009-.114-.013-.114-.013a.624.624,0,0,0,.094.08c.031.031.084.028.146.045a.442.442,0,0,0,.2-.037.882.882,0,0,0,.357-.325,1.4,1.4,0,0,0,.234-.768,1.2,1.2,0,0,0-.029-.271.753.753,0,0,0-.111-.246c-.027-.035-.051-.071-.078-.1l-.1-.069a.411.411,0,0,0-.2-.065.326.326,0,0,0-.138.006A1.09,1.09,0,0,0,660.961,78.988Z" transform="translate(-659.839 -78.054)" fill="#d2d1d1" style="mix-blend-mode: multiply;isolation: isolate"/>
        </g>
        <g id="Group_2635" data-name="Group 2635" transform="translate(3.53 15.985)">
          <path id="Path_2042" data-name="Path 2042" d="M623.46,78.55c.178.947-.16,1.807-.756,1.918s-1.223-.565-1.4-1.513.16-1.805.757-1.918S623.282,77.6,623.46,78.55Z" transform="translate(-621.255 -77.026)" fill="#fabc99"/>
          <path id="Path_2043" data-name="Path 2043" d="M622.8,78.988a1.077,1.077,0,0,1-.109.045.251.251,0,0,0-.114.056c-.031.034-.07.047-.1.1a.357.357,0,0,0-.07.136c-.026.044-.017.116-.034.172a1.583,1.583,0,0,0,.041.415,1.853,1.853,0,0,0,.128.41,1.107,1.107,0,0,0,.189.306.6.6,0,0,0,.109.08c.037.006.078.034.109.022.064-.009.113-.013.113-.013a.6.6,0,0,1-.093.08c-.032.031-.084.028-.146.045a.44.44,0,0,1-.2-.037.885.885,0,0,1-.358-.325,1.435,1.435,0,0,1-.2-.493,1.389,1.389,0,0,1-.028-.275,1.237,1.237,0,0,1,.029-.271.733.733,0,0,1,.112-.246c.027-.035.05-.071.077-.1l.1-.069a.41.41,0,0,1,.2-.065.325.325,0,0,1,.138.006A1.076,1.076,0,0,1,622.8,78.988Z" transform="translate(-621.667 -78.054)" fill="#d2d1d1" style="mix-blend-mode: multiply;isolation: isolate"/>
        </g>
        <rect id="Rectangle_14" data-name="Rectangle 14" width="4.133" height="3.497" transform="translate(11.209 25.723)" fill="#fabc99"/>
        <path id="Path_2044" data-name="Path 2044" d="M641.862,98.277v-.361h-4.133V100.6A4.68,4.68,0,0,1,641.862,98.277Z" transform="translate(-626.52 -72.193)" fill="#d2d1d1" style="mix-blend-mode: multiply;isolation: isolate"/>
        <path id="Path_2045" data-name="Path 2045" d="M640.992,61.788c0,6.187-3.751,11.2-8.873,11.2s-8.775-5.2-8.775-11.384c-.093-8.219,3.652-11.019,8.775-11.019S641.443,53.1,640.992,61.788Z" transform="translate(-618.839 -46.927)" fill="#fabc99"/>
        <path id="Path_2046" data-name="Path 2046" d="M629.6,103.957a2.889,2.889,0,0,1-5.281,0c-2.212.378-10.163,2-10.637,5.949v.931h26.551V109.9C639.761,105.961,631.819,104.335,629.6,103.957Z" transform="translate(-613.683 -75.417)" fill="#44d3c5"/>
        <g id="Group_2636" data-name="Group 2636" transform="translate(9.77 28.539)">
          <path id="Path_2047" data-name="Path 2047" d="M640.789,103.957a2.889,2.889,0,0,1-5.281,0c-.23.04-.526.094-.867.162a3.654,3.654,0,0,0,3.468,2.62h.04a3.654,3.654,0,0,0,3.47-2.628C641.294,104.046,641.012,104,640.789,103.957Z" transform="translate(-634.641 -103.956)" fill="#6f171c"/>
        </g>
        <path id="Path_2048" data-name="Path 2048" d="M628.907,69.515a2.09,2.09,0,0,1,3.258-.556" transform="translate(-621.81 -56.44)" fill="none" stroke="#341e13" stroke-linecap="round" stroke-miterlimit="10" stroke-width="0.908"/>
        <path id="Path_2049" data-name="Path 2049" d="M651.684,69.515a2.089,2.089,0,0,0-3.258-.556" transform="translate(-632.23 -56.44)" fill="none" stroke="#341e13" stroke-linecap="round" stroke-miterlimit="10" stroke-width="0.908"/>
        <g id="Group_2637" data-name="Group 2637" transform="translate(12.106 18.708)">
          <path id="Path_2050" data-name="Path 2050" d="M641.9,82.868a.845.845,0,0,1,.116.116,1.171,1.171,0,0,1,.224.381.832.832,0,0,1,.058.317.725.725,0,0,1-.108.386,1.666,1.666,0,0,1-.142.17c-.056.041-.116.082-.178.119a1.7,1.7,0,0,1-.38.126,3.11,3.11,0,0,1-.372.028c-.119,0-.235-.018-.347-.026a4.064,4.064,0,0,1-.585-.143,3.547,3.547,0,0,1-.533-.242,3.833,3.833,0,0,1,.577-.028c.169,0,.363-.011.567-.006.1,0,.2-.017.307-.015a2.83,2.83,0,0,0,.3-.036,1.309,1.309,0,0,0,.262-.07.61.61,0,0,1,.1-.052l.078-.066a.488.488,0,0,0,.1-.181.875.875,0,0,0,.027-.227,2.1,2.1,0,0,0-.042-.392C641.913,82.927,641.9,82.868,641.9,82.868Z" transform="translate(-639.652 -82.868)" fill="#ca9a7e"/>
        </g>
        <g id="Group_2639" data-name="Group 2639" transform="translate(10.846 21.836)">
          <path id="Path_2051" data-name="Path 2051" d="M636.95,89.995a2.76,2.76,0,0,0,5,0Z" transform="translate(-636.95 -89.8)" fill="#fff"/>
          <g id="Group_2638" data-name="Group 2638">
            <path id="Path_2052" data-name="Path 2052" d="M636.95,89.772l.233.312.257.283.288.248.313.209.333.167.35.119.361.069.364.014.374-.038.338-.086.334-.138.313-.18.287-.221.258-.257.227-.285.2-.309.171.288C640.28,89.955,638.616,89.911,636.95,89.772Zm0,0c1.666-.139,3.33-.183,5-.195h.009a.189.189,0,0,1,.19.187.187.187,0,0,1-.028.1l-.214.35c-.082.11-.17.216-.257.322s-.2.192-.3.287-.221.165-.331.248-.241.135-.363.2l-.389.144-.419.086-.4.021-.41-.043-.4-.1-.373-.164c-.115-.071-.232-.139-.343-.214s-.208-.17-.305-.26-.181-.195-.266-.3l-.227-.324Z" transform="translate(-636.95 -89.577)" fill="#dca788"/>
          </g>
        </g>
        <g id="Group_2641" data-name="Group 2641" transform="translate(7.899 14.107)">
          <path id="Path_2053" data-name="Path 2053" d="M632.819,74.013A.884.884,0,1,1,631.946,73,.952.952,0,0,1,632.819,74.013Z" transform="translate(-630.864 -72.999)" fill="#341e13"/>
          <g id="Group_2640" data-name="Group 2640" transform="translate(0 0.2)">
            <path id="Path_2054" data-name="Path 2054" d="M631.442,73.834a.407.407,0,1,1-.407-.407A.407.407,0,0,1,631.442,73.834Z" transform="translate(-630.627 -73.427)" fill="#fff"/>
            <path id="Path_2055" data-name="Path 2055" d="M631.887,75.347a.193.193,0,1,1-.193-.193A.192.192,0,0,1,631.887,75.347Z" transform="translate(-631.094 -74.349)" fill="#fff"/>
          </g>
        </g>
        <g id="Group_2643" data-name="Group 2643" transform="translate(16.733 14.107)">
          <path id="Path_2056" data-name="Path 2056" d="M649.578,74.013A.884.884,0,1,0,650.452,73,.953.953,0,0,0,649.578,74.013Z" transform="translate(-649.578 -72.999)" fill="#341e13"/>
          <g id="Group_2642" data-name="Group 2642" transform="translate(1.141 0.2)">
            <path id="Path_2057" data-name="Path 2057" d="M652.025,73.834a.407.407,0,1,0,.407-.407A.407.407,0,0,0,652.025,73.834Z" transform="translate(-652.025 -73.427)" fill="#fff"/>
            <path id="Path_2058" data-name="Path 2058" d="M652.07,75.347a.193.193,0,1,0,.193-.193A.193.193,0,0,0,652.07,75.347Z" transform="translate(-652.049 -74.349)" fill="#fff"/>
          </g>
        </g>
        <path id="Path_2059" data-name="Path 2059" d="M645.505,45.563s1.584,1.4,3.231-.692c0,0-.188,2.009-1.361,2.747a1.762,1.762,0,0,0,2.437-.035,2.843,2.843,0,0,1-1.14,2.736,26.372,26.372,0,0,1-.779,7.661l-.445,1.137-.41.138-.221,1.577h-.425l.465-5.191s.424-6.146-5.183-6.336c0,0-2.506-.448-2.948,1.391,0,0-.084-1.9-3.43-1.391a3.675,3.675,0,0,1,.854-4.751S640.121,41.505,645.505,45.563Z" transform="translate(-624.941 -43.12)" fill="#fc6644"/>
        <path id="Path_2060" data-name="Path 2060" d="M623.877,45.18a11.411,11.411,0,0,1,10.734-1.837c2.484,2.225-.524,5.578-.524,5.578-2.359-.253-2.646,1.391-2.646,1.391-.03-1.992-3.733-1.391-3.733-1.391-4.659.221-4.816,6.336-4.816,6.336l.1,5.191h-.424l-.221-1.577-.41-.138S619.161,48.786,623.877,45.18Z" transform="translate(-617.655 -42.737)" fill="#fc6644"/>
      </g>
    </g>
  </g>
</svg>
