<svg xmlns="http://www.w3.org/2000/svg" width="15.5" height="15.5" viewBox="0 0 15.5 15.5">
  <path id="Icon_awesome-sort-alpha-down-alt" data-name="Icon awesome-sort-alpha-down-alt" d="M6.089,13.321H4.429V2.8a.554.554,0,0,0-.554-.554H2.768a.554.554,0,0,0-.554.554V13.321H.554a.554.554,0,0,0-.391.945l2.768,3.321a.554.554,0,0,0,.783,0l2.768-3.321A.554.554,0,0,0,6.089,13.321ZM9.964,8.893h4.429a.554.554,0,0,0,.554-.554V7.232a.554.554,0,0,0-.554-.554H12.455l2.119-2.437a1.107,1.107,0,0,0,.372-.828V2.8a.554.554,0,0,0-.554-.554H9.964a.554.554,0,0,0-.554.554V3.911a.554.554,0,0,0,.554.554H11.9L9.782,6.9a1.107,1.107,0,0,0-.372.828v.61A.554.554,0,0,0,9.964,8.893Zm5.5,8.117-2.051-5.536a.554.554,0,0,0-.521-.367H11.462a.554.554,0,0,0-.521.367L8.89,17.01a.554.554,0,0,0,.521.74h.859a.554.554,0,0,0,.527-.383l.153-.447h2.456l.153.447a.554.554,0,0,0,.528.383h.859a.554.554,0,0,0,.521-.74Zm-3.856-2.028.567-1.661.567,1.661Z" transform="translate(0 -2.25)" fill="rgba(255,255,255,0.5)"/>
</svg>
